<svg width="210" height="70.001" viewBox="0 0 300 70.001" xmlns="http://www.w3.org/2000/svg"><g id="svgGroup" stroke-linecap="round" fill-rule="evenodd" font-size="9pt" stroke="#5EBAB1" stroke-width="0" fill="#5EBAB1" style="stroke:#5EBAB1;stroke-width:0;fill:#5EBAB1"><path d="M 48.1 31.6 L 48.1 64.6 Q 45.6 66.1 39.85 68.05 Q 34.46 69.878 27.355 69.992 A 59.384 59.384 0 0 1 26.4 70 Q 17.7 70 11.85 66.4 Q 6 62.8 3 56.5 Q 0 50.2 0 42.1 L 0 27.8 A 38.93 38.93 0 0 1 0.66 20.469 A 29.383 29.383 0 0 1 3 13.25 Q 6 7 11.95 3.5 Q 17.296 0.355 25.104 0.036 A 43.965 43.965 0 0 1 26.9 0 A 44.697 44.697 0 0 1 34.103 0.603 A 51.181 51.181 0 0 1 36 0.95 A 40.861 40.861 0 0 1 40.604 2.181 Q 42.9 2.933 45.377 3.996 A 69.649 69.649 0 0 1 46.3 4.4 L 42.6 14.9 A 93.892 93.892 0 0 0 39.115 13.623 Q 36.369 12.681 34.15 12.15 Q 30.6 11.3 27.1 11.3 A 21.522 21.522 0 0 0 22.899 11.682 Q 20.515 12.157 18.702 13.224 A 10.3 10.3 0 0 0 15.8 15.75 Q 12.724 19.661 12.352 26.006 A 30.622 30.622 0 0 0 12.3 27.8 L 12.3 42.1 Q 12.3 49.283 15.833 53.878 A 15.382 15.382 0 0 0 15.85 53.9 Q 19.15 58.176 25.949 58.477 A 23.742 23.742 0 0 0 27 58.5 A 30.621 30.621 0 0 0 29.715 58.373 A 39.592 39.592 0 0 0 32 58.1 Q 34.7 57.7 37.2 57 L 37.2 42.1 L 26.2 42.1 L 26.2 31.6 L 48.1 31.6 Z M 129 31.4 L 129 42.9 L 106.2 42.9 L 106.2 69 L 94.2 69 L 94.2 1 L 132 1 L 132 12.5 L 106.2 12.5 L 106.2 31.4 L 129 31.4 Z M 177 1 L 189.4 1 L 168.6 41.7 L 168.6 69 L 156.6 69 L 156.6 41.9 L 135.6 1 L 148.4 1 L 163.1 30 L 177 1 Z M 222.1 69 L 199.1 69 L 199.1 1 L 222.1 1 Q 231.475 1 237.424 5.015 A 19.34 19.34 0 0 1 240.7 7.8 Q 247.1 14.6 247.1 27.8 L 247.1 42.1 A 44.074 44.074 0 0 1 246.483 49.734 Q 245.755 53.866 244.169 57.126 A 20.314 20.314 0 0 1 240.7 62.2 A 20.552 20.552 0 0 1 231.075 67.872 Q 227.82 68.789 223.93 68.96 A 41.467 41.467 0 0 1 222.1 69 Z M 75.4 1 L 75.4 69 L 63.4 69 L 63.4 1 L 75.4 1 Z M 221.6 12.5 L 211.1 12.5 L 211.1 57.5 L 221.6 57.5 A 22.645 22.645 0 0 0 225.251 57.227 Q 227.133 56.919 228.612 56.263 A 8.847 8.847 0 0 0 231.75 54 Q 234.8 50.5 234.8 42.1 L 234.8 27.8 Q 234.8 20.69 232.563 17.103 A 8.609 8.609 0 0 0 231.75 16 A 9.042 9.042 0 0 0 228.155 13.547 Q 225.483 12.5 221.6 12.5 Z" vector-effect="non-scaling-stroke"/></g></svg>